<?xml version="1.0" encoding="iso-8859-1"?>
<!-- Uploaded to: SVG Repo, www.svgrepo.com, Generator: SVG Repo Mixer Tools -->
<svg version="1.1" id="Layer_1" xmlns="http://www.w3.org/2000/svg" xmlns:xlink="http://www.w3.org/1999/xlink" 
	 viewBox="0 0 512 512" xml:space="preserve">
<rect x="224.653" y="339.268" style="fill:#3D9AE2;" width="62.694" height="116.308"/>
<g>
	<circle style="fill:#B3D8F4;" cx="256" cy="175.02" r="52.245"/>
	<path style="fill:#B3D8F4;" d="M360.49,504.163H151.51v-27.69c0-11.542,9.356-20.898,20.898-20.898h167.184
		c11.542,0,20.898,9.356,20.898,20.898V504.163z"/>
</g>
<path d="M256,0C159.494,0,80.98,78.514,80.98,175.02c0,83.04,58.132,152.755,135.837,170.595v102.123h-44.408
	c-15.844,0-28.735,12.89-28.735,28.735V512h224.653v-35.527c0-15.845-12.891-28.735-28.735-28.735h-44.408V345.616
	c77.705-17.841,135.837-87.555,135.837-170.595C431.02,78.514,352.506,0,256,0z M263.837,234.574
	c10.711-1.402,20.541-5.629,28.716-11.917l29.695,29.695c-15.965,13.698-36.203,22.55-58.411,24.248V234.574z M256,219.429
	c-24.487,0-44.408-19.921-44.408-44.408s19.921-44.408,44.408-44.408s44.408,19.921,44.408,44.408S280.487,219.429,256,219.429z
	 M248.163,115.466c-10.711,1.402-20.541,5.63-28.716,11.917l-29.695-29.695c15.965-13.698,36.203-22.55,58.411-24.248V115.466z
	 M292.553,127.384c-8.175-6.288-18.005-10.515-28.716-11.917V73.444c17.621,1.34,34.483,7.188,49.172,17.121l8.779-12.984
	c-17.291-11.692-37.186-18.473-57.951-19.841V15.868c38.04,1.852,72.619,17.102,99.108,41.125L292.553,127.384z M248.163,57.737
	c-26.524,1.754-50.67,12.342-69.516,28.848l-29.592-29.592c26.488-24.023,61.067-39.274,99.108-41.125V57.737z M167.564,97.667
	c-16.505,18.846-27.093,42.992-28.848,69.517H96.847c1.852-38.041,17.103-72.62,41.125-99.108L167.564,97.667z M138.721,182.857
	c1.367,20.766,8.147,40.66,19.841,57.951l12.984-8.779c-9.933-14.689-15.781-31.551-17.121-49.172h28.433v-15.673h-28.436
	c1.698-22.209,10.551-42.446,24.248-58.412l29.695,29.695c-7.796,10.134-12.446,22.808-12.446,36.554s4.65,26.418,12.446,36.554
	l-70.392,70.392c-24.023-26.488-39.274-61.068-41.125-99.109H138.721z M219.447,222.657c8.175,6.288,18.005,10.515,28.716,11.917
	v42.023c-17.621-1.34-34.483-7.188-49.172-17.121l-8.779,12.984c17.291,11.692,37.186,18.473,57.951,19.841v41.872
	c-38.041-1.852-72.619-17.102-99.108-41.125L219.447,222.657z M263.837,292.304c26.524-1.754,50.67-12.342,69.516-28.846
	l29.591,29.592c-26.488,24.022-61.067,39.274-99.108,41.125V292.304z M344.436,252.374c16.505-18.846,27.093-42.992,28.848-69.517
	h41.869c-1.852,38.041-17.102,72.62-41.125,99.108L344.436,252.374z M373.28,167.184c-1.368-20.766-8.147-40.66-19.841-57.951
	l-12.984,8.779c9.933,14.689,15.781,31.551,17.121,49.172h-28.434v15.673h28.436c-1.698,22.209-10.55,42.446-24.248,58.412
	l-29.695-29.695c7.795-10.134,12.446-22.808,12.446-36.554s-4.65-26.418-12.446-36.554l70.392-70.392
	c24.023,26.488,39.274,61.068,41.125,99.108H373.28V167.184z M352.653,476.473v19.853H159.347v-19.853
	c0-7.202,5.859-13.061,13.061-13.061h167.184C346.794,463.412,352.653,469.271,352.653,476.473z M279.51,447.739h-47.02v-99.282
	c7.693,1.038,15.539,1.584,23.51,1.584s15.818-0.546,23.51-1.584V447.739z"/>
<path d="M49.633,175.02c0,55.112,21.466,106.935,60.444,145.923l11.083-11.081c-36.019-36.029-55.854-83.916-55.854-134.842H49.633z
	"/>
<path d="M401.923,29.097L390.84,40.178c36.019,36.028,55.854,83.916,55.854,134.841h15.673
	C462.367,119.908,440.901,68.086,401.923,29.097z"/>
<g>
	<rect x="177.633" y="472.033" style="fill:#FFFFFF;" width="15.673" height="15.673"/>
	<rect x="214.204" y="472.033" style="fill:#FFFFFF;" width="15.673" height="15.673"/>
</g>
</svg>